<svg width="20" height="20" viewBox="0 0 20 20" fill="none" xmlns="http://www.w3.org/2000/svg">
<path d="M2.763 13.563C1.248 15.051 2.528 16.579 0.516 18.842C-0.392 19.865 4.254 19.553 6.555 17.291C7.532 16.33 7.256 14.932 6.209 13.902C5.162 12.874 3.739 12.602 2.763 13.563V13.563ZM19.539 0.659001C18.763 -0.104999 10.16 6.788 7.6 9.305C6.329 10.555 5.905 11.225 5.516 11.725C5.346 11.944 5.571 12.01 5.67 12.061C6.174 12.319 6.526 12.557 6.981 13.004C7.437 13.451 7.68 13.797 7.94 14.293C7.993 14.391 8.061 14.611 8.282 14.445C8.792 14.062 9.473 13.644 10.744 12.396C13.305 9.88 20.317 1.422 19.539 0.659001Z" fill="white"/>
</svg>
