<svg width="20" height="16" viewBox="0 0 20 16" fill="none" xmlns="http://www.w3.org/2000/svg">
<path d="M5.719 12.75C5.47424 12.7504 5.2379 12.6607 5.055 12.498L-0.00500107 8L5.336 3.252C5.53508 3.0817 5.79304 2.99632 6.05442 3.01423C6.31579 3.03214 6.5597 3.1519 6.73369 3.34777C6.90768 3.54364 6.99785 3.79997 6.98482 4.06163C6.97179 4.32329 6.85659 4.56939 6.664 4.747L3.005 8L6.383 11.002C6.53476 11.1367 6.64197 11.3143 6.6904 11.5113C6.73882 11.7083 6.72617 11.9154 6.65413 12.1051C6.58208 12.2948 6.45404 12.458 6.28702 12.5732C6.12 12.6884 5.92189 12.7501 5.719 12.75V12.75ZM14.664 12.748L20.005 8L14.945 3.502C14.7467 3.3259 14.4867 3.23576 14.222 3.25142C13.9572 3.26708 13.7096 3.38725 13.5335 3.5855C13.3574 3.78375 13.2673 4.04384 13.2829 4.30855C13.2986 4.57325 13.4187 4.8209 13.617 4.997L16.995 8L13.336 11.252C13.1376 11.4281 13.0173 11.6758 13.0016 11.9406C12.9858 12.2054 13.0759 12.4656 13.252 12.664C13.4281 12.8624 13.6758 12.9827 13.9406 12.9984C14.2054 13.0142 14.4656 12.9241 14.664 12.748V12.748ZM9.986 14.165L11.986 2.165C12.0116 2.03386 12.0106 1.89891 11.9832 1.76815C11.9557 1.63738 11.9023 1.51344 11.8262 1.40365C11.75 1.29386 11.6526 1.20045 11.5398 1.12892C11.4269 1.0574 11.3008 1.00922 11.169 0.987235C11.0373 0.965247 10.9024 0.969895 10.7724 1.0009C10.6424 1.03191 10.52 1.08865 10.4123 1.16777C10.3047 1.24689 10.2139 1.34679 10.1455 1.46156C10.0771 1.57634 10.0324 1.70366 10.014 1.836L8.014 13.836C7.98842 13.9671 7.98939 14.1021 8.01684 14.2329C8.0443 14.3636 8.09768 14.4876 8.17383 14.5974C8.24999 14.7071 8.34737 14.8006 8.46024 14.8721C8.5731 14.9436 8.69915 14.9918 8.83095 15.0138C8.96275 15.0358 9.09761 15.0311 9.22758 15.0001C9.35755 14.9691 9.47999 14.9124 9.58766 14.8332C9.69533 14.7541 9.78606 14.6542 9.85447 14.5394C9.92289 14.4247 9.96761 14.2973 9.986 14.165V14.165Z" fill="white"/>
</svg>
