<svg width="21" height="21" viewBox="0 0 21 21" fill="none" xmlns="http://www.w3.org/2000/svg">
<path d="M17.1 0.67L11.197 6.572C10.8531 6.91606 10.6091 7.34707 10.491 7.819L10.033 9.65C9.98745 9.83218 9.98987 10.023 10.04 10.204C10.0902 10.385 10.1864 10.5498 10.3192 10.6826C10.452 10.8153 10.617 10.9114 10.798 10.9614C10.979 11.0114 11.1699 11.0137 11.352 10.968L13.182 10.511C13.6544 10.3929 14.0858 10.1485 14.43 9.804L20.332 3.902C20.7498 3.47116 20.9813 2.89332 20.9768 2.29322C20.9722 1.69312 20.7318 1.11889 20.3075 0.694477C19.8832 0.270064 19.3091 0.0295122 18.709 0.0247457C18.1089 0.0199791 17.531 0.251381 17.1 0.669001V0.67ZM2.25 2H14.355L12.855 3.5H2.25C2.06876 3.50001 1.89366 3.56564 1.75707 3.68477C1.62048 3.80389 1.53165 3.96845 1.507 4.148L1.5 4.25V14.752C1.5 15.132 1.782 15.445 2.148 15.495L2.25 15.502H17.749C17.9302 15.502 18.1053 15.4364 18.2419 15.3172C18.3785 15.1981 18.4674 15.0336 18.492 14.854L18.499 14.752V7.15L19.999 5.65V14.752C19.9991 15.3221 19.7827 15.871 19.3936 16.2878C19.0046 16.7045 18.4718 16.958 17.903 16.997L17.749 17.002H13.499V19.5H15.25C15.44 19.5001 15.6229 19.5722 15.7618 19.702C15.9006 19.8317 15.9851 20.0093 15.998 20.1989C16.011 20.3885 15.9515 20.5759 15.8316 20.7233C15.7117 20.8707 15.5402 20.9671 15.352 20.993L15.25 21H4.75C4.55998 20.9999 4.37706 20.9278 4.23821 20.798C4.09936 20.6683 4.01493 20.4907 4.00197 20.3011C3.98902 20.1115 4.04852 19.9241 4.16843 19.7767C4.28835 19.6293 4.45975 19.5329 4.648 19.507L4.75 19.5H6.499V17.002H2.25C1.67987 17.0021 1.13098 16.7857 0.714247 16.3966C0.297514 16.0076 0.0440221 15.4748 0.00500013 14.906L1.69987e-08 14.752V4.25C-7.00219e-05 3.67987 0.216295 3.13098 0.605369 2.71425C0.994443 2.29751 1.52721 2.04402 2.096 2.005L2.25 2ZM11.998 17.002H7.998L7.999 19.5H11.999L11.998 17.002Z" fill="white"/>
</svg>
